<svg width="27" height="27" viewBox="0 0 27 27" fill="none" xmlns="http://www.w3.org/2000/svg">
<path d="M25.1163 26.9686H10.1407C9.10465 26.9686 8.25698 26.1199 8.25698 25.0827C8.25698 24.0454 9.10465 23.1967 10.1407 23.1967H23.2326V13.2643C23.2326 13.2328 23.2012 13.2014 23.2012 13.17L13.5 4.40047L3.79884 13.17C3.76744 13.2014 3.76744 13.2328 3.76744 13.2643V25.1141C3.76744 26.1513 2.91977 27 1.88372 27C0.847674 27 0 26.1513 0 25.1141V13.2643C0 12.1641 0.47093 11.1269 1.28721 10.3725L12.2442 0.471478C12.9663 -0.157159 14.0337 -0.157159 14.7558 0.471478L25.7128 10.3725C26.5291 11.0955 27 12.1641 27 13.2643V25.1141C26.9686 26.1513 26.1523 26.9686 25.1163 26.9686Z" fill="#669ed1"/>
</svg>
